<svg xmlns="http://www.w3.org/2000/svg" viewBox="0 0 512 512" role="img" aria-label="InboxGuard shield logo">
  <defs>
    <linearGradient id="shieldGrad" x1="60" y1="70" x2="460" y2="460" gradientUnits="userSpaceOnUse">
      <stop offset="0%" stop-color="#0B43B8" />
      <stop offset="55%" stop-color="#1E73E9" />
      <stop offset="100%" stop-color="#33D3A6" />
    </linearGradient>
    <linearGradient id="innerGrad" x1="140" y1="140" x2="360" y2="380" gradientUnits="userSpaceOnUse">
      <stop offset="0%" stop-color="#0952B1" />
      <stop offset="100%" stop-color="#0D4DA8" />
    </linearGradient>
    <linearGradient id="accentGrad" x1="330" y1="140" x2="430" y2="240" gradientUnits="userSpaceOnUse">
      <stop offset="0%" stop-color="#29C5AE" />
      <stop offset="100%" stop-color="#55E0B8" />
    </linearGradient>
  </defs>

  <!-- outer shield ring -->
  <path d="M256 36 434 102 418 288 256 452 94 288 78 102Z" fill="none" stroke="url(#shieldGrad)" stroke-width="22" stroke-linejoin="round" stroke-linecap="round" />

  <!-- inner shield fill -->
  <path d="M256 66 410 122 396 286 256 428 116 286 102 122Z" fill="#FFFFFF" />

  <!-- inner g / 3 hybrid -->
  <path d="M256 145c-62 0-112 50-112 112s50 112 112 112c30 0 58-12 79-31l-21-24c-15 13-34 20-55 20-46 0-83-37-83-83s37-83 83-83c27 0 50 13 65 35h-67v30h98c1-6 2-12 2-18 0-72-58-130-130-130z" fill="url(#innerGrad)" />
  <path d="M210 214 307 138 327 160 229 236z" fill="#FFFFFF" />
  <path d="M210 214c17-18 40-29 67-29 29 0 56 14 72 37" fill="none" stroke="#FFFFFF" stroke-width="20" stroke-linecap="round" />
  <path d="M186 300c21 22 51 36 86 36" fill="none" stroke="#FFFFFF" stroke-width="18" stroke-linecap="round" />

  <!-- blue-to-teal right sweep -->
  <path d="M138 338c-10-23-10-49 0-72" fill="none" stroke="url(#shieldGrad)" stroke-width="18" stroke-linecap="round" />

  <!-- top-right accents -->
  <path d="M330 142c16 2 31 10 41 24" fill="none" stroke="url(#accentGrad)" stroke-width="14" stroke-linecap="round" />
  <circle cx="368" cy="128" r="8" fill="#FFFFFF" />
  <circle cx="390" cy="150" r="8" fill="#FFFFFF" />
</svg>
