<svg xmlns="http://www.w3.org/2000/svg" viewBox="0 0 840 220" role="img" aria-label="InboxGuard wordmark logo">
  <defs>
    <linearGradient id="shieldBlue" x1="0" y1="0" x2="1" y2="1">
      <stop offset="0%" stop-color="#0E4FB5" />
      <stop offset="100%" stop-color="#1E7CF2" />
    </linearGradient>
    <linearGradient id="shieldTeal" x1="0" y1="0" x2="1" y2="1">
      <stop offset="0%" stop-color="#23C1A9" />
      <stop offset="100%" stop-color="#52D78A" />
    </linearGradient>
    <linearGradient id="textGuard" x1="0" y1="0" x2="1" y2="0">
      <stop offset="0%" stop-color="#1A8FB7" />
      <stop offset="100%" stop-color="#3BCF9A" />
    </linearGradient>
  </defs>

  <g transform="translate(20 10)">
    <path d="M110 8L182 32V88c0 48-30 84-72 108C68 172 38 136 38 88V32Z" fill="url(#shieldBlue)" />
    <path d="M110 26L168 46V89c0 38-24 67-58 89C76 156 52 127 52 89V46Z" fill="white" />
    <path d="M110 18c20 10 44 14 66 16 10 1 18 3 24 6v34c0 15-3 28-9 40l-22 59c-18 20-39 35-59 47-40-24-66-59-66-108V32z" fill="url(#shieldTeal)" opacity="0.98" style="mix-blend-mode:multiply"/>
    <path d="M95 76l32-17c14-7 30-7 44-1l-22 22a42 42 0 1 1-54 41l17-16a20 20 0 1 0 26-21l-35 19z" fill="#0C4EA1"/>
    <path d="M177 68a34 34 0 0 1 11 21" fill="none" stroke="#1B8DB6" stroke-width="8" stroke-linecap="round"/>
    <circle cx="193" cy="74" r="6" fill="#F5FAFF"/>
    <circle cx="205" cy="59" r="7" fill="#F5FAFF"/>
  </g>

  <text x="270" y="138" font-size="102" font-weight="700" font-family="Inter, Segoe UI, Arial, sans-serif" fill="#0F2F75">Inbox</text>
  <text x="560" y="138" font-size="102" font-weight="700" font-family="Inter, Segoe UI, Arial, sans-serif" fill="url(#textGuard)">Guard</text>
</svg>
