<svg xmlns="http://www.w3.org/2000/svg" viewBox="0 0 1024 1024" role="img" aria-label="InboxGuard shield logo">
  <defs>
    <linearGradient id="shieldGrad" x1="180" y1="190" x2="860" y2="860" gradientUnits="userSpaceOnUse">
      <stop offset="0%" stop-color="#0A43B8" />
      <stop offset="48%" stop-color="#1D72E5" />
      <stop offset="100%" stop-color="#36D4A4" />
    </linearGradient>
    <linearGradient id="gGrad" x1="330" y1="350" x2="650" y2="690" gradientUnits="userSpaceOnUse">
      <stop offset="0%" stop-color="#0B53B8" />
      <stop offset="100%" stop-color="#0D4AA9" />
    </linearGradient>
    <linearGradient id="accentGrad" x1="620" y1="310" x2="840" y2="540" gradientUnits="userSpaceOnUse">
      <stop offset="0%" stop-color="#2DD3AE" />
      <stop offset="100%" stop-color="#5AE8BE" />
    </linearGradient>
    <filter id="softShadow" x="-20%" y="-20%" width="140%" height="140%">
      <feDropShadow dx="0" dy="18" stdDeviation="22" flood-color="#0B1220" flood-opacity="0.14" />
    </filter>
  </defs>

  <rect x="112" y="112" width="800" height="800" rx="124" fill="#FFFFFF" filter="url(#softShadow)" />

  <path d="M512 180 824 292 790 610 512 840 234 610 200 292Z" fill="none" stroke="url(#shieldGrad)" stroke-width="40" stroke-linejoin="round" stroke-linecap="round" />
  <path d="M512 224 780 320 750 602 512 790 274 602 244 320Z" fill="#FFFFFF" />

  <path d="M512 286c-115 0-206 91-206 206s91 206 206 206c59 0 112-23 150-60l-42-44c-27 24-63 39-101 39-85 0-154-69-154-154s69-154 154-154c43 0 81 17 108 46h-104v64h204c4-19 6-37 6-56 0-126-96-237-221-237z" fill="url(#gGrad)" />
  <path d="M430 420 608 292 650 336 470 468z" fill="#FFFFFF" />
  <path d="M430 420c31-33 73-54 121-54 53 0 101 26 130 67" fill="none" stroke="#FFFFFF" stroke-width="44" stroke-linecap="round" />
  <path d="M390 612c40 42 95 68 157 68" fill="none" stroke="#FFFFFF" stroke-width="42" stroke-linecap="round" />

  <path d="M274 680c-24-56-22-118 4-172" fill="none" stroke="url(#shieldGrad)" stroke-width="28" stroke-linecap="round" />

  <path d="M636 314c28 2 54 16 72 40" fill="none" stroke="url(#accentGrad)" stroke-width="20" stroke-linecap="round" />
  <circle cx="758" cy="344" r="15" fill="#FFFFFF" />
  <circle cx="806" cy="392" r="15" fill="#FFFFFF" />
</svg>
