<svg xmlns="http://www.w3.org/2000/svg" viewBox="0 0 64 64" role="img" aria-label="InboxGuard favicon">
  <defs>
    <linearGradient id="shieldBlue" x1="0" y1="0" x2="1" y2="1">
      <stop offset="0%" stop-color="#0E4FB5" />
      <stop offset="100%" stop-color="#1E7CF2" />
    </linearGradient>
    <linearGradient id="shieldTeal" x1="0" y1="0" x2="1" y2="1">
      <stop offset="0%" stop-color="#23C1A9" />
      <stop offset="100%" stop-color="#52D78A" />
    </linearGradient>
  </defs>
  <rect width="64" height="64" rx="12" fill="#F3F5F7" />
  <path d="M32 5l22 8v17c0 14-9 24-22 31C19 54 10 44 10 30V13Z" fill="url(#shieldBlue)" />
  <path d="M32 10l17 6v14c0 10-7 18-17 24-10-6-17-14-17-24V16z" fill="white" />
  <path d="M28 27l11-6c5-3 11-2 15 0l-8 8a14 14 0 1 1-18 13l6-6a7 7 0 1 0 9-7l-12 6z" fill="#0C4EA1"/>
  <path d="M53 24a10 10 0 0 1 3 6" fill="none" stroke="#1B8DB6" stroke-width="3" stroke-linecap="round"/>
  <circle cx="57" cy="24" r="2" fill="#F5FAFF"/>
  <path d="M32 8c9 4 16 6 24 6v10c0 7-2 13-5 18l-9 14c-3 2-6 4-10 6-13-7-22-17-22-32V13z" fill="url(#shieldTeal)" opacity="0.96" style="mix-blend-mode:multiply"/>
</svg>
