<svg xmlns="http://www.w3.org/2000/svg" viewBox="0 0 64 64" role="img" aria-label="InboxGuard shield favicon">
  <defs>
    <linearGradient id="bg" x1="0" y1="0" x2="1" y2="1">
      <stop offset="0" stop-color="#12345e"/>
      <stop offset="1" stop-color="#081a3f"/>
    </linearGradient>
    <linearGradient id="inner" x1="0" y1="0" x2="1" y2="1">
      <stop offset="0" stop-color="#1f4f86"/>
      <stop offset="1" stop-color="#0d2e64"/>
    </linearGradient>
  </defs>

  <rect width="64" height="64" rx="12" fill="url(#bg)"/>

  <path d="M32 4c6.6 3 13.6 4.6 21 4.8v18.3c0 14.3-8.4 24.6-21 32.9C19.4 51.7 11 41.4 11 27.1V8.8C18.4 8.6 25.4 7 32 4z" fill="#f4f7fb"/>
  <path d="M32 8.3c5.4 2.4 11 3.8 17.1 4.1v14.7c0 12.3-7 21.2-17.1 28-10.1-6.8-17.1-15.7-17.1-28V12.4c6.1-.3 11.7-1.7 17.1-4.1z" fill="url(#inner)"/>

  <g transform="translate(14 19)">
    <path d="M3 5h30v18H3z" fill="none" stroke="#f4f7fb" stroke-width="2.1"/>
    <path d="M3 5l15.2 11L33 5" fill="none" stroke="#f4f7fb" stroke-width="2.1" stroke-linecap="round" stroke-linejoin="round"/>
    <path d="M9.2 12h18" stroke="#ef4444" stroke-width="3.2" stroke-linecap="round"/>
    <path d="M12.5 16.5h11.5" stroke="#19c37d" stroke-width="3.2" stroke-linecap="round"/>
  </g>
</svg>
